PathFileType	4	(X/Y/Z)	C:\Users\Basilio\Documents\Thesis Gigler\squatting_fais\c3dfiles\038\SLS_front_pre3\markers_experimental.trc
DataRate	CameraRate	NumFrames	NumMarkers	Units	OrigDataRate	OrigDataStartFrame	OrigNumFrames
200.000000	200.000000	4	61	mm	200.000000	684	1368
Frame#	Time	FHD			LBHD			RBHD			C7			T10			CLAV			LSHO			LUUPA			LMUPA			LDUPA			LLEP			LMEP			LUL			LRFIN			RSHO			RUPA1			RMUPA			RDUPA			RLEP			RMEP			RRAD			RUL			RUFIN			LASI			RASI			USACR			LSACR			RSACR			LTHI1			LTHI2			LTHI3			LTHI4			LLFC			LMFC			LTIB1			LTIB2			LTIB3			LTIB4			LLMAL			LMMAL			LHEE			LMT1			LMT2			LMT5			RTHI			RTHI2			RTHI3			RTHI4			RLFC			RMFC			RTIB1			RTIB2			RTIB3			RTIB4			RLMAL			RMMAL			RHEE			RMT1			RMT2			RMT5			LRAD			
		X1	Y1	Z1	X2	Y2	Z2	X3	Y3	Z3	X4	Y4	Z4	X5	Y5	Z5	X6	Y6	Z6	X7	Y7	Z7	X8	Y8	Z8	X9	Y9	Z9	X10	Y10	Z10	X11	Y11	Z11	X12	Y12	Z12	X13	Y13	Z13	X14	Y14	Z14	X15	Y15	Z15	X16	Y16	Z16	X17	Y17	Z17	X18	Y18	Z18	X19	Y19	Z19	X20	Y20	Z20	X21	Y21	Z21	X22	Y22	Z22	X23	Y23	Z23	X24	Y24	Z24	X25	Y25	Z25	X26	Y26	Z26	X27	Y27	Z27	X28	Y28	Z28	X29	Y29	Z29	X30	Y30	Z30	X31	Y31	Z31	X32	Y32	Z32	X33	Y33	Z33	X34	Y34	Z34	X35	Y35	Z35	X36	Y36	Z36	X37	Y37	Z37	X38	Y38	Z38	X39	Y39	Z39	X40	Y40	Z40	X41	Y41	Z41	X42	Y42	Z42	X43	Y43	Z43	X44	Y44	Z44	X45	Y45	Z45	X46	Y46	Z46	X47	Y47	Z47	X48	Y48	Z48	X49	Y49	Z49	X50	Y50	Z50	X51	Y51	Z51	X52	Y52	Z52	X53	Y53	Z53	X54	Y54	Z54	X55	Y55	Z55	X56	Y56	Z56	X57	Y57	Z57	X58	Y58	Z58	X59	Y59	Z59	X60	Y60	Z60	X61	Y61	Z61	

685	3.42	-177.4608001708985	1481.492919921875	-1144.256469726563	-338.3960266113282	1445.175415039063	-1202.81591796875	-330.4309997558594	1436.457885742188	-1057.93017578125	-410.2984619140626	1293.481323242188	-1113.534790039063	-484.6487121582032	1023.949890136719	-1062.776489257813	-273.4368286132813	1238.1513671875	-1126.666870117188	-339.5323791503907	1284.895141601563	-1262.069580078125	-184.801498413086	1225.24853515625	-1396.467651367188	-156.66162109375	1258.655029296875	-1370.150390625	-115.9659652709961	1232.462646484375	-1405.766235351563	-53.3290481567383	1235.087158203125	-1408.278442382813	-42.51194000244141	1161.700317382813	-1385.246704101563	242.1858367919922	1251.043701171875	-1375.77099609375	303.2630920410157	1267.077514648438	-1284.549194335938	-302.1007080078126	1298.68017578125	-991.7947998046877	-147.887451171875	1281.488403320313	-871.1804809570315	-112.1048736572266	1284.05908203125	-904.6296386718752	-80.24497985839845	1275.307495117188	-853.9167480468752	-7.984658241271974	1268.94580078125	-842.7559204101565	-5.46472454071045	1190.43798828125	-853.5125122070315	272.6151428222657	1247.172973632813	-900.2310791015627	277.6361694335938	1267.38427734375	-832.3067626953127	355.1565856933594	1278.962646484375	-900.4766845703127	-323.9086608886719	832.7402954101565	-1148.1591796875	-358.4104003906251	858.311218261719	-901.6245117187502	-507.2197570800782	855.5405883789065	-1038.787231445313	-511.1142883300782	821.6514892578127	-1065.138793945313	-517.7757568359376	824.8382568359377	-1009.375427246094	-185.9606170654297	575.6445312500001	-1212.520629882813	-110.9974441528321	533.2264404296876	-1214.013061523438	-77.77108001708986	562.9042968750001	-1190.846069335938	-102.6039123535157	474.1946105957032	-1198.658081054688	-76.17224884033205	428.605438232422	-1185.64892578125	-63.32085418701173	433.7136535644532	-1069.523315429688	-123.9459686279297	268.6168212890626	-1083.795776367188	-187.1173400878907	247.4888916015626	-1143.095336914063	-157.6451263427735	229.5387115478516	-1111.380859375	-213.1490173339844	179.7612915039063	-1069.018676757813	-357.5082397460938	109.9504013061524	-1079.44384765625	-314.0248107910157	127.0096969604492	-1006.204711914063	-416.6716918945314	95.22618103027345	-1016.594848632813	-215.1825256347657	45.38806152343751	-1017.749328613281	-209.889877319336	43.11183547973634	-1068.98779296875	-257.2444763183594	32.40202331542969	-1112.93359375	-229.3472442626954	647.6724853515626	-839.3447265625002	-162.74609375	646.4901733398439	-840.4931640625002	-145.3367004394532	673.5574340820314	-846.2668457031252	-115.7020950317383	575.2207641601564	-857.9145507812502	3.973396301269532	510.3103637695314	-872.2056884765627	3.83362102508545	513.4343261718751	-994.729919433594	171.3484802246094	439.4070129394532	-901.2609863281252	187.9375610351563	328.1912231445313	-868.8740844726565	213.6190948486329	366.9143371582032	-877.4199829101565	260.7456359863282	346.6374206542969	-906.9523925781252	319.9234619140626	218.6277618408204	-880.3654785156252	334.2173156738282	253.1130523681641	-959.1448974609377	333.2556457519532	145.1351318359375	-947.542175292969	452.0009765625001	326.1400756835938	-921.4512939453127	442.6360168457032	325.0482482910157	-874.4396972656252	434.2437438964845	276.4033508300782	-833.9674072265627	nan	nan	nan	
686	3.425	-177.4217987060547	1481.453002929688	-1144.119506835938	-338.2095947265626	1445.3251953125	-1202.70654296875	-330.3114624023438	1436.52294921875	-1057.840209960938	-410.2925720214845	1293.560302734375	-1113.465209960938	-484.5865783691407	1024.068237304688	-1062.782104492188	-273.4479980468751	1238.224853515625	-1126.67236328125	-339.4904785156251	1285.002807617188	-1262.049682617188	-184.6531066894532	1225.385620117188	-1396.4228515625	-156.5746612548828	1258.75390625	-1370.114013671875	-115.9178543090821	1232.563720703125	-1405.713134765625	-53.27816390991212	1235.156372070313	-1408.165405273438	-42.38434600830079	1161.803100585938	-1385.197998046875	242.1927642822266	1251.189819335938	-1375.494873046875	303.1864929199219	1267.032470703125	-1284.194702148438	-302.0877990722657	1298.743408203125	-991.789245605469	-147.8992919921875	1281.491943359375	-871.1729125976565	-112.1165313720703	1284.110961914063	-904.6409912109377	-80.2538299560547	1275.3828125	-853.9231567382815	-8.007801055908205	1268.988037109375	-842.7855224609377	-5.499697208404542	1190.402709960938	-853.5676269531252	272.6368713378907	1247.187133789063	-900.3540039062502	277.6679382324219	1267.401123046875	-832.452087402344	355.0809020996094	1279.01513671875	-900.6243896484377	-323.9897155761719	832.7559204101565	-1148.099487304688	-358.4924011230469	858.4613037109377	-901.5914306640627	-507.3067932128907	855.6128540039065	-1038.855346679688	-510.8958740234376	821.692565917969	-1065.17578125	-517.8712768554689	824.9475708007815	-1009.47021484375	-185.9021911621094	575.6804809570314	-1212.349853515625	-110.961296081543	533.2473144531251	-1213.7958984375	-77.68450927734376	562.8839111328126	-1190.65625	-102.5063171386719	474.2069702148439	-1198.365356445313	-76.20803833007814	428.552703857422	-1185.198364257813	-63.39325332641603	433.8489990234376	-1069.084716796875	-123.9362945556641	268.6296997070313	-1083.460083007813	-187.008056640625	247.4757537841797	-1142.878173828125	-157.5724487304688	229.4978485107422	-1111.1015625	-213.1199951171876	179.8001403808594	-1068.890380859375	-357.4904479980469	109.9977035522461	-1079.348876953125	-314.0614624023438	126.9576492309571	-1006.005676269531	-416.6705932617189	95.20458221435548	-1016.548828125	-215.1804199218751	45.38461685180665	-1017.763122558594	-209.8619995117188	43.15255355834962	-1068.95458984375	-257.2884216308594	32.43846511840821	-1112.9013671875	-229.5708465576172	647.5444335937501	-839.3793945312502	-162.9458312988282	646.3221435546876	-840.5144042968752	-145.3945465087891	673.4154052734376	-846.320007324219	-115.869125366211	574.9638061523439	-857.9769287109377	3.762153148651124	509.9987792968751	-872.2929687500002	3.539911746978761	513.1570434570314	-994.755310058594	171.1502685546875	439.2324829101564	-901.1142578125002	187.4051513671875	327.9226379394532	-869.0887451171877	213.1580200195313	366.4391174316407	-877.5402832031252	260.4364013671876	346.1564941406251	-907.1033325195315	319.6151123046876	218.5382385253907	-880.2159423828127	333.2290039062501	252.9788055419922	-959.3616333007815	335.1354675292969	143.1128997802735	-947.9753417968752	451.6141662597657	325.4089355468751	-921.6421508789065	441.9171447753907	324.6394653320313	-874.5982666015627	433.8076477050782	275.9226379394532	-834.2564697265627	nan	nan	nan	
687	3.43	-177.3777160644532	1481.494262695313	-1144.116333007813	-338.1506958007813	1445.431396484375	-1202.6123046875	-330.2149353027344	1436.618896484375	-1057.731323242188	-410.3123168945314	1293.625366210938	-1113.457763671875	-484.548797607422	1024.218139648438	-1062.7666015625	-273.4408569335938	1238.317504882813	-1126.552001953125	-339.3560485839844	1285.164184570313	-1262.06591796875	-184.6771545410157	1225.462036132813	-1396.378662109375	-156.4762725830078	1258.874755859375	-1370.064086914063	-115.84423828125	1232.649169921875	-1405.669311523438	-53.05943679809572	1235.1865234375	-1408.09619140625	-42.37995147705079	1161.859619140625	-1385.111328125	242.1343536376954	1251.247924804688	-1375.255615234375	302.9209899902344	1267.22119140625	-1283.925659179688	-302.0968933105469	1298.8212890625	-991.7824707031252	-147.8760223388672	1281.595336914063	-871.1757812500002	-112.1758499145508	1284.1435546875	-904.6762695312502	-80.28142547607423	1275.434448242188	-853.969665527344	-8.017511367797853	1269.01513671875	-842.8464965820315	-5.784277915954591	1190.025146484375	-853.9426879882815	272.5426635742188	1247.3017578125	-900.4561157226565	277.6887817382813	1267.524658203125	-832.603698730469	355.1029663085938	1279.280639648438	-900.893493652344	-323.6824951171876	832.8818359375002	-1148.141235351563	-358.5662536621094	858.482360839844	-901.592956542969	-507.293182373047	855.7398071289065	-1038.946899414063	-510.9154052734376	821.783386230469	-1065.278564453125	-517.8933105468751	824.9528808593752	-1009.601745605469	-185.8573455810547	575.6480712890626	-1212.048461914063	-110.9558410644532	533.1972656250001	-1213.513305664063	-77.60619354248048	562.9236450195314	-1190.398193359375	-102.451904296875	474.2498779296876	-1198.07421875	-76.09647369384767	428.684051513672	-1184.995483398438	-63.38792419433595	433.9387817382814	-1068.542114257813	-123.8579177856446	268.5947875976563	-1083.093383789063	-186.88134765625	247.4505615234376	-1142.701782226563	-157.6636505126953	229.8338165283204	-1111.0732421875	-213.1091918945313	179.7750701904297	-1068.790771484375	-357.4524230957032	109.9870147705078	-1079.18408203125	-314.0806579589844	126.9085540771485	-1005.896667480469	-416.6408996582032	95.21021270751955	-1016.49072265625	-215.2922668457032	45.37408828735352	-1017.723266601563	-209.7430114746094	43.42073059082032	-1068.757202148438	-257.2843322753907	32.49187088012696	-1112.883911132813	-229.6689453125001	647.4708862304689	-839.341979980469	-163.1314544677735	646.2061157226564	-840.465515136719	-145.4896392822266	673.2415771484376	-846.3611450195315	-116.0624389648438	574.8153076171876	-858.0711669921877	3.453542470932008	509.7736206054689	-872.3828125000002	3.277832746505738	512.9122924804689	-994.8082275390627	170.8497619628907	438.842010498047	-901.2058105468752	186.880599975586	327.5489807128907	-869.262634277344	212.9091491699219	366.0095520019532	-877.6907348632815	260.0055847167969	345.6590270996094	-907.2546997070315	318.9505615234376	218.1245574951172	-880.3511962890627	332.7925720214844	252.5337066650391	-959.667419433594	325.4612121582032	147.9406127929688	-946.0391235351565	449.9473266601564	325.2381896972657	-921.7850341796877	441.9605712890626	323.8811645507813	-874.599792480469	433.3802795410157	275.5336303710938	-834.5930175781252	nan	nan	nan	
688	3.435	-177.055404663086	1481.400390625	-1143.977416992188	-338.0963745117188	1445.608154296875	-1202.485717773438	-330.1881103515626	1436.624755859375	-1057.574829101563	-410.3237304687501	1293.771240234375	-1113.390502929688	-484.5671386718751	1024.264892578125	-1062.777709960938	-273.5221862792969	1238.4326171875	-1126.461669921875	-339.3279724121094	1285.208618164063	-1262.03125	-184.5928955078125	1225.630493164063	-1396.34033203125	-156.4281768798828	1259.0263671875	-1370.028198242188	-115.87158203125	1232.772827148438	-1405.58251953125	-53.1082229614258	1235.350341796875	-1408.02783203125	-42.31297302246094	1162.046508789063	-1385.013916015625	242.2333984375001	1251.387084960938	-1375.023071289063	303.2044067382813	1267.024658203125	-1283.546020507813	-302.0956726074219	1298.957641601563	-991.7922973632815	-147.9701843261719	1281.713012695313	-871.2357177734377	-112.2146911621094	1284.17138671875	-904.7139282226565	-80.27760314941408	1275.539794921875	-854.0449218750002	-8.04464912414551	1269.068115234375	-842.8931274414065	-5.514513969421388	1190.603515625	-853.7404785156252	272.4958801269532	1247.432373046875	-900.674255371094	277.6438293457032	1267.583984375	-832.7978515625002	354.7751464843751	1279.021728515625	-900.5181274414065	-323.7787170410157	832.8591918945315	-1148.03857421875	-358.4108276367188	858.812927246094	-901.0297851562502	-507.3428039550782	855.895202636719	-1038.992797851563	-510.8786926269532	821.897399902344	-1065.422241210938	-517.8975830078126	825.0720825195315	-1009.716735839844	-185.7384643554688	575.6577148437501	-1211.88232421875	-110.8350296020508	533.1613159179689	-1213.309448242188	-77.48948669433595	562.9672851562501	-1190.175903320313	-102.3806610107422	474.225799560547	-1197.807739257813	-76.03415679931642	428.642303466797	-1184.688354492188	-63.3710289001465	434.0420532226564	-1068.302612304688	-123.866569519043	268.6262512207032	-1082.808837890625	-186.7662048339844	247.4140777587891	-1142.475341796875	-157.6105041503907	229.8634338378907	-1110.808959960938	-213.0313110351563	179.7669219970703	-1068.568481445313	-357.4320678710938	110.4039306640625	-1078.975219726563	-314.0893554687501	126.8454132080078	-1005.713256835938	-416.6256713867189	95.15203857421876	-1016.483032226563	-215.2911682128907	45.3363151550293	-1017.689208984375	-209.8385162353516	43.20773696899415	-1068.861572265625	-257.2601623535157	32.55145263671876	-1112.864379882813	-229.8188018798829	647.4727172851564	-839.3159179687502	-163.2003784179688	646.0949096679689	-840.5149536132815	-145.5835571289063	673.0690917968751	-846.4204711914065	-116.2261657714844	574.6962890625001	-858.1231079101565	3.162601947784425	509.6275024414064	-872.4312744140627	3.107203960418702	512.6576538085939	-994.9061279296877	170.5865631103516	438.5386352539064	-901.2888793945315	186.4141693115235	327.2489624023438	-869.3955688476565	212.7041473388672	365.6563720703126	-877.9170532226565	259.5774536132813	345.2450561523438	-907.3009033203127	318.4840698242188	217.5100555419922	-880.5527954101565	332.7184448242188	251.7283935546876	-959.917907714844	322.6208801269532	149.1181030273438	-946.0153808593752	449.8687438964845	324.4844360351563	-922.1326293945315	442.0199584960939	323.1085205078126	-874.588317871094	432.9028320312501	274.9654235839844	-834.8623657226565	nan	nan	nan	
